<svg xmlns="http://www.w3.org/2000/svg" width="13" height="13" viewBox="0 0 13 13" fill="none">
  <path d="M1.5 7.625C1.5 6.69312 1.5 6.22718 1.65224 5.85963C1.85523 5.36958 2.24458 4.98023 2.73463 4.77724C3.10218 4.625 3.56812 4.625 4.5 4.625H8.5C9.43188 4.625 9.89782 4.625 10.2654 4.77724C10.7554 4.98023 11.1448 5.36958 11.3478 5.85963C11.5 6.22718 11.5 6.69312 11.5 7.625V7.625C11.5 9.02282 11.5 9.72174 11.2716 10.2731C10.9672 11.0081 10.3831 11.5922 9.64805 11.8966C9.09674 12.125 8.39782 12.125 7 12.125H6C4.60218 12.125 3.90326 12.125 3.35195 11.8966C2.61687 11.5922 2.03284 11.0081 1.72836 10.2731C1.5 9.72174 1.5 9.02282 1.5 7.625V7.625Z" stroke="#33363F" stroke-width="1.5"/>
  <path d="M9 4V3.375C9 1.99429 7.88071 0.875 6.5 0.875V0.875C5.11929 0.875 4 1.99429 4 3.375V4" stroke="#33363F" stroke-width="1.5" stroke-linecap="round"/>
  <circle cx="6.5" cy="8.375" r="1.25" fill="#33363F"/>
</svg>