<svg version="1.1" id="Layer_1" xmlns="http://www.w3.org/2000/svg" xmlns:xlink="http://www.w3.org/1999/xlink" x="0px" y="0px" width="current" height="current"
	 width="100%" viewBox="0 0 1080 1080" enable-background="new 0 0 1080 1080" xml:space="preserve">
<path fill="none" opacity="1.000000" stroke="none" 
	d=" 
M631.000000,1081.000000 
	C420.690887,1081.000000 210.881760,1081.000000 1.036320,1081.000000 
	C1.036320,721.065735 1.036320,361.131500 1.036320,1.098634 
	C360.892670,1.098634 720.785400,1.098634 1080.839111,1.098634 
	C1080.839111,360.999939 1080.839111,720.999939 1080.839111,1081.000000 
	C931.131042,1081.000000 781.315491,1081.000000 631.000000,1081.000000 
M535.004639,43.495628 
	C526.515076,48.713791 517.467957,53.215103 509.649323,59.295940 
	C492.144226,72.910278 474.544800,86.549492 458.305389,101.604149 
	C441.898895,116.813675 426.813446,133.492371 411.669037,150.004150 
	C400.835815,161.815460 397.771759,177.019562 405.606445,192.169937 
	C414.505920,209.379333 427.957367,222.018906 444.951874,230.933258 
	C454.242218,235.806473 464.179779,237.427414 473.660217,231.960617 
	C481.387146,227.504959 489.276733,222.730423 495.612885,216.572983 
	C517.333618,195.464920 538.443604,173.749603 562.837524,155.577957 
	C573.504822,147.631622 584.247253,139.928009 596.707031,134.972168 
	C612.391052,128.733902 628.441345,128.895294 644.718872,131.985291 
	C663.688232,135.586273 680.463928,143.652740 694.393311,157.015152 
	C706.345703,168.480957 715.422974,182.018341 722.150085,197.256912 
	C730.130432,215.334320 731.995789,234.121964 728.695190,253.246597 
	C725.317932,272.815399 717.225891,290.773163 705.545959,306.793152 
	C695.119019,321.094696 684.331909,335.211945 672.705383,348.539642 
	C659.957275,363.153046 646.249268,376.950989 632.588501,390.736481 
	C626.543213,396.836945 622.350525,396.723053 615.403809,391.854828 
	C612.185791,389.599670 609.069031,387.164215 606.119202,384.568695 
	C595.373108,375.113403 582.454224,373.657196 571.258789,380.290619 
	C553.677002,390.708008 539.177979,404.237427 528.733582,421.847961 
	C519.589844,437.265472 519.740234,446.409637 532.518494,460.174927 
	C536.265137,464.211029 539.457031,468.914093 542.165161,473.726776 
	C546.224731,480.941254 544.744141,486.988251 537.903687,491.403809 
	C534.237915,493.770081 530.086365,495.918915 525.869019,496.796509 
	C512.655273,499.546173 499.315765,501.038910 485.708710,501.177185 
	C463.532135,501.402527 443.961395,494.264252 425.379303,482.973938 
	C414.614044,476.433075 403.776855,469.901245 392.474213,464.385468 
	C381.535675,459.047363 370.196960,459.258698 359.852722,466.619751 
	C349.096191,474.274231 340.606903,484.081482 335.558044,496.252563 
	C332.784058,502.939728 330.591217,510.316406 330.285461,517.474060 
	C329.825897,528.231384 335.829437,537.110413 343.704956,543.703552 
	C353.583527,551.973572 364.312958,559.289429 375.041382,566.469910 
	C402.303864,584.716553 432.927521,592.122803 465.285645,592.885376 
	C479.872498,593.229004 494.512573,592.739136 509.083862,591.875000 
	C521.023743,591.166870 532.980286,589.847656 544.783386,587.909729 
	C569.067383,583.922546 590.827637,574.401184 608.654663,556.892822 
	C614.171570,551.474487 620.825134,550.615967 626.669983,555.353333 
	C633.019104,560.499512 638.887756,566.295288 644.583374,572.178162 
	C654.839722,582.771667 664.728699,593.719727 674.922607,604.374939 
	C686.412170,616.384399 697.949585,628.352966 709.689453,640.116577 
	C719.663086,650.110352 729.929626,659.813049 740.120911,669.587769 
	C742.856628,672.211670 745.692749,674.751221 748.650085,677.120544 
	C769.182312,693.570007 792.879639,694.582886 814.671631,679.794250 
	C828.960022,670.097656 842.388672,659.463196 854.165100,646.613098 
	C864.701233,635.116455 876.358521,624.636047 887.671570,613.865295 
	C905.441589,596.947021 923.298889,580.119629 941.193787,563.333374 
	C955.200928,550.194092 969.418701,537.278564 983.366211,524.076904 
	C1000.004761,508.328094 1016.894592,492.806274 1032.826782,476.363525 
	C1042.853394,466.015533 1052.178711,454.735748 1060.227173,442.800720 
	C1066.981201,432.785187 1068.230835,421.044098 1060.082397,410.568481 
	C1054.022705,402.778076 1047.734009,394.987122 1040.492432,388.346619 
	C1033.650146,382.072235 1025.728027,376.842682 1015.345825,377.928436 
	C1007.310913,378.768768 1000.570007,382.571289 994.535156,387.188171 
	C981.496338,397.163300 968.773560,407.582092 956.317078,418.279907 
	C941.045532,431.395325 926.150391,444.950317 911.147522,458.376831 
	C903.509583,465.212158 895.953979,472.140930 888.427795,479.099426 
	C870.073914,496.068878 851.821167,513.148315 833.398376,530.042297 
	C825.747131,537.058594 818.157166,544.244507 809.832031,550.396057 
	C800.208008,557.507507 795.618103,558.108093 785.487122,550.713440 
	C774.752441,542.878113 764.466980,534.275146 754.843994,525.106201 
	C741.734131,512.614685 729.094238,499.581451 716.916626,486.177429 
	C709.176270,477.657501 705.700317,471.264679 717.029480,459.382568 
	C729.361633,446.448395 741.735840,433.514160 753.338684,419.936462 
	C764.084900,407.361176 774.147705,394.164764 783.950989,380.829773 
	C797.512817,362.382172 806.886169,341.533539 815.506714,320.537384 
	C824.746765,298.032440 829.219971,274.065765 830.746399,249.865189 
	C831.803650,233.102859 831.368591,216.251068 828.254639,199.434052 
	C824.365906,178.432709 818.787170,158.085022 810.169922,138.591324 
	C797.423157,109.756233 777.468262,86.557266 752.745178,67.471817 
	C732.234802,51.638420 709.331177,40.139019 684.354065,33.005993 
	C667.636475,28.231768 650.624268,25.390921 633.256348,23.743174 
	C618.426697,22.336233 603.812683,23.215992 589.340759,25.266994 
	C570.499756,27.937202 552.506714,34.029793 535.004639,43.495628 
M49.918674,539.366455 
	C46.366035,546.369202 42.545925,553.250977 39.311924,560.397888 
	C30.340342,580.224304 24.721666,601.138184 23.249422,622.734802 
	C21.824097,643.643005 22.793001,664.608032 27.924532,685.226196 
	C33.734669,708.570923 42.251320,730.715698 55.045467,751.126343 
	C66.592056,769.546814 81.215508,785.247253 97.739578,799.294495 
	C110.779808,810.380066 124.850258,819.935547 139.932816,827.937866 
	C166.307861,841.931519 194.594971,849.991272 224.279358,851.708252 
	C240.056381,852.620850 256.202026,851.957397 271.823456,849.616882 
	C294.160645,846.270142 314.648193,836.879578 334.082214,825.394043 
	C353.653931,813.827148 369.661438,797.831787 386.444336,782.854004 
	C394.220856,775.913940 401.325623,768.133545 408.134399,760.217590 
	C417.857849,748.913086 427.392395,737.339905 433.661804,723.637939 
	C440.799377,708.038574 441.509613,692.191895 433.240204,676.776306 
	C426.997345,665.138672 417.183990,656.907043 405.549683,650.952332 
	C396.969421,646.560791 387.919159,646.344604 379.640228,651.294434 
	C372.649414,655.473999 365.908051,660.339539 359.880005,665.809326 
	C343.192200,680.951599 327.129913,696.783081 310.448090,711.932190 
	C296.071655,724.987549 280.613708,736.823547 262.039825,743.223328 
	C253.184464,746.274475 243.642136,747.984924 234.287506,748.710083 
	C227.770035,749.215454 221.029465,747.092590 214.411285,746.005371 
	C187.776901,741.629822 165.478912,729.693604 149.287018,707.702332 
	C136.160004,689.873657 128.258804,670.014954 128.058273,647.585144 
	C128.005234,641.653198 128.158386,635.631531 129.115692,629.798584 
	C130.617233,620.649475 132.394608,611.486450 134.936432,602.580811 
	C138.986542,588.390564 147.155472,576.140015 155.481766,564.232910 
	C163.457703,552.826843 172.241089,541.932129 181.288467,531.341309 
	C194.471390,515.909424 207.950729,500.709869 221.815140,485.889740 
	C229.023590,478.184418 237.272308,471.442078 245.152588,464.377899 
	C256.948029,453.804108 268.672607,443.142242 280.721008,432.862061 
	C295.091339,420.600708 310.339539,409.610962 327.656067,401.680634 
	C350.676727,391.138031 374.451904,388.650452 399.022095,394.543610 
	C417.744324,399.034180 434.764893,407.948853 452.239349,415.656158 
	C463.724243,420.721741 475.225677,422.735931 486.299347,414.875519 
	C498.118652,406.485840 507.178375,395.641785 512.328003,382.045776 
	C516.138428,371.985535 515.619141,362.146698 509.407928,352.628845 
	C501.617279,340.690674 490.235565,332.627838 479.299011,324.354950 
	C464.691925,313.305450 448.861603,303.730377 431.349762,297.958038 
	C417.765869,293.480438 403.812683,289.644043 389.726715,287.330200 
	C379.625580,285.670959 369.007568,286.538727 358.669403,287.133942 
	C350.036224,287.630981 341.303558,288.660522 332.912323,290.686096 
	C304.342255,297.582489 278.205383,309.900726 253.888916,326.487671 
	C226.687683,345.042419 201.118668,365.602905 176.895828,387.804565 
	C163.462479,400.116974 150.672394,413.181549 138.191635,426.469910 
	C123.386116,442.233459 108.937103,458.355347 94.859039,474.772491 
	C77.876160,494.577179 63.121223,516.027100 49.918674,539.366455 
M491.536682,849.971191 
	C456.537811,884.967407 421.447083,919.872681 386.609131,955.028381 
	C378.610992,963.099609 370.956238,971.633118 364.096863,980.677002 
	C356.936432,990.117493 354.354980,1001.003235 358.898956,1012.643127 
	C366.792389,1032.863037 380.862732,1047.492798 400.380005,1056.545410 
	C409.183777,1060.628784 419.133759,1061.015991 427.401123,1055.565430 
	C437.633301,1048.819214 447.618835,1041.335815 456.403473,1032.821777 
	C489.277557,1000.960571 521.612122,968.542786 554.160339,936.345154 
	C583.509827,907.311951 613.056641,878.474854 642.131287,849.169128 
	C652.096924,839.124268 661.488342,828.374878 670.077698,817.134094 
	C680.560364,803.415405 685.078552,788.307251 677.203918,771.200378 
	C672.170410,760.265564 664.744141,751.201477 656.835266,742.503845 
	C649.170593,734.074829 640.793457,726.293762 632.728577,718.228760 
	C613.756531,699.256348 594.898071,680.168518 575.772034,661.352661 
	C562.977661,648.765808 549.574890,636.722473 533.970093,627.737610 
	C523.435242,621.671875 511.981262,619.262878 499.513885,622.691528 
	C475.770386,629.221191 463.637787,654.276367 470.702209,678.297974 
	C475.245941,693.748291 483.230194,707.568848 492.915344,720.141846 
	C507.443665,739.002075 522.844727,757.196411 538.086609,775.497375 
	C544.275879,782.928955 546.213379,789.285706 542.579285,794.764648 
	C540.320007,798.170776 537.808655,801.483582 534.981934,804.426758 
	C522.200134,817.735352 509.250458,830.882629 496.405243,844.130737 
	C494.811493,845.774597 493.480804,847.673584 491.536682,849.971191 
z"/>
<path fill="white" opacity="1.000000" stroke="none" 
	d="
M535.321167,43.288620 
	C552.506714,34.029793 570.499756,27.937202 589.340759,25.266994 
	C603.812683,23.215992 618.426697,22.336233 633.256348,23.743174 
	C650.624268,25.390921 667.636475,28.231768 684.354065,33.005993 
	C709.331177,40.139019 732.234802,51.638420 752.745178,67.471817 
	C777.468262,86.557266 797.423157,109.756233 810.169922,138.591324 
	C818.787170,158.085022 824.365906,178.432709 828.254639,199.434052 
	C831.368591,216.251068 831.803650,233.102859 830.746399,249.865189 
	C829.219971,274.065765 824.746765,298.032440 815.506714,320.537384 
	C806.886169,341.533539 797.512817,362.382172 783.950989,380.829773 
	C774.147705,394.164764 764.084900,407.361176 753.338684,419.936462 
	C741.735840,433.514160 729.361633,446.448395 717.029480,459.382568 
	C705.700317,471.264679 709.176270,477.657501 716.916626,486.177429 
	C729.094238,499.581451 741.734131,512.614685 754.843994,525.106201 
	C764.466980,534.275146 774.752441,542.878113 785.487122,550.713440 
	C795.618103,558.108093 800.208008,557.507507 809.832031,550.396057 
	C818.157166,544.244507 825.747131,537.058594 833.398376,530.042297 
	C851.821167,513.148315 870.073914,496.068878 888.427795,479.099426 
	C895.953979,472.140930 903.509583,465.212158 911.147522,458.376831 
	C926.150391,444.950317 941.045532,431.395325 956.317078,418.279907 
	C968.773560,407.582092 981.496338,397.163300 994.535156,387.188171 
	C1000.570007,382.571289 1007.310913,378.768768 1015.345825,377.928436 
	C1025.728027,376.842682 1033.650146,382.072235 1040.492432,388.346619 
	C1047.734009,394.987122 1054.022705,402.778076 1060.082397,410.568481 
	C1068.230835,421.044098 1066.981201,432.785187 1060.227173,442.800720 
	C1052.178711,454.735748 1042.853394,466.015533 1032.826782,476.363525 
	C1016.894592,492.806274 1000.004761,508.328094 983.366211,524.076904 
	C969.418701,537.278564 955.200928,550.194092 941.193787,563.333374 
	C923.298889,580.119629 905.441589,596.947021 887.671570,613.865295 
	C876.358521,624.636047 864.701233,635.116455 854.165100,646.613098 
	C842.388672,659.463196 828.960022,670.097656 814.671631,679.794250 
	C792.879639,694.582886 769.182312,693.570007 748.650085,677.120544 
	C745.692749,674.751221 742.856628,672.211670 740.120911,669.587769 
	C729.929626,659.813049 719.663086,650.110352 709.689453,640.116577 
	C697.949585,628.352966 686.412170,616.384399 674.922607,604.374939 
	C664.728699,593.719727 654.839722,582.771667 644.583374,572.178162 
	C638.887756,566.295288 633.019104,560.499512 626.669983,555.353333 
	C620.825134,550.615967 614.171570,551.474487 608.654663,556.892822 
	C590.827637,574.401184 569.067383,583.922546 544.783386,587.909729 
	C532.980286,589.847656 521.023743,591.166870 509.083862,591.875000 
	C494.512573,592.739136 479.872498,593.229004 465.285645,592.885376 
	C432.927521,592.122803 402.303864,584.716553 375.041382,566.469910 
	C364.312958,559.289429 353.583527,551.973572 343.704956,543.703552 
	C335.829437,537.110413 329.825897,528.231384 330.285461,517.474060 
	C330.591217,510.316406 332.784058,502.939728 335.558044,496.252563 
	C340.606903,484.081482 349.096191,474.274231 359.852722,466.619751 
	C370.196960,459.258698 381.535675,459.047363 392.474213,464.385468 
	C403.776855,469.901245 414.614044,476.433075 425.379303,482.973938 
	C443.961395,494.264252 463.532135,501.402527 485.708710,501.177185 
	C499.315765,501.038910 512.655273,499.546173 525.869019,496.796509 
	C530.086365,495.918915 534.237915,493.770081 537.903687,491.403809 
	C544.744141,486.988251 546.224731,480.941254 542.165161,473.726776 
	C539.457031,468.914093 536.265137,464.211029 532.518494,460.174927 
	C519.740234,446.409637 519.589844,437.265472 528.733582,421.847961 
	C539.177979,404.237427 553.677002,390.708008 571.258789,380.290619 
	C582.454224,373.657196 595.373108,375.113403 606.119202,384.568695 
	C609.069031,387.164215 612.185791,389.599670 615.403809,391.854828 
	C622.350525,396.723053 626.543213,396.836945 632.588501,390.736481 
	C646.249268,376.950989 659.957275,363.153046 672.705383,348.539642 
	C684.331909,335.211945 695.119019,321.094696 705.545959,306.793152 
	C717.225891,290.773163 725.317932,272.815399 728.695190,253.246597 
	C731.995789,234.121964 730.130432,215.334320 722.150085,197.256912 
	C715.422974,182.018341 706.345703,168.480957 694.393311,157.015152 
	C680.463928,143.652740 663.688232,135.586273 644.718872,131.985291 
	C628.441345,128.895294 612.391052,128.733902 596.707031,134.972168 
	C584.247253,139.928009 573.504822,147.631622 562.837524,155.577957 
	C538.443604,173.749603 517.333618,195.464920 495.612885,216.572983 
	C489.276733,222.730423 481.387146,227.504959 473.660217,231.960617 
	C464.179779,237.427414 454.242218,235.806473 444.951874,230.933258 
	C427.957367,222.018906 414.505920,209.379333 405.606445,192.169937 
	C397.771759,177.019562 400.835815,161.815460 411.669037,150.004150 
	C426.813446,133.492371 441.898895,116.813675 458.305389,101.604149 
	C474.544800,86.549492 492.144226,72.910278 509.649323,59.295940 
	C517.467957,53.215103 526.515076,48.713791 535.321167,43.288620 
z"/>
<path fill="white" opacity="1.000000" stroke="none" 
	d="
M49.999603,539.002197 
	C63.121223,516.027100 77.876160,494.577179 94.859039,474.772491 
	C108.937103,458.355347 123.386116,442.233459 138.191635,426.469910 
	C150.672394,413.181549 163.462479,400.116974 176.895828,387.804565 
	C201.118668,365.602905 226.687683,345.042419 253.888916,326.487671 
	C278.205383,309.900726 304.342255,297.582489 332.912323,290.686096 
	C341.303558,288.660522 350.036224,287.630981 358.669403,287.133942 
	C369.007568,286.538727 379.625580,285.670959 389.726715,287.330200 
	C403.812683,289.644043 417.765869,293.480438 431.349762,297.958038 
	C448.861603,303.730377 464.691925,313.305450 479.299011,324.354950 
	C490.235565,332.627838 501.617279,340.690674 509.407928,352.628845 
	C515.619141,362.146698 516.138428,371.985535 512.328003,382.045776 
	C507.178375,395.641785 498.118652,406.485840 486.299347,414.875519 
	C475.225677,422.735931 463.724243,420.721741 452.239349,415.656158 
	C434.764893,407.948853 417.744324,399.034180 399.022095,394.543610 
	C374.451904,388.650452 350.676727,391.138031 327.656067,401.680634 
	C310.339539,409.610962 295.091339,420.600708 280.721008,432.862061 
	C268.672607,443.142242 256.948029,453.804108 245.152588,464.377899 
	C237.272308,471.442078 229.023590,478.184418 221.815140,485.889740 
	C207.950729,500.709869 194.471390,515.909424 181.288467,531.341309 
	C172.241089,541.932129 163.457703,552.826843 155.481766,564.232910 
	C147.155472,576.140015 138.986542,588.390564 134.936432,602.580811 
	C132.394608,611.486450 130.617233,620.649475 129.115692,629.798584 
	C128.158386,635.631531 128.005234,641.653198 128.058273,647.585144 
	C128.258804,670.014954 136.160004,689.873657 149.287018,707.702332 
	C165.478912,729.693604 187.776901,741.629822 214.411285,746.005371 
	C221.029465,747.092590 227.770035,749.215454 234.287506,748.710083 
	C243.642136,747.984924 253.184464,746.274475 262.039825,743.223328 
	C280.613708,736.823547 296.071655,724.987549 310.448090,711.932190 
	C327.129913,696.783081 343.192200,680.951599 359.880005,665.809326 
	C365.908051,660.339539 372.649414,655.473999 379.640228,651.294434 
	C387.919159,646.344604 396.969421,646.560791 405.549683,650.952332 
	C417.183990,656.907043 426.997345,665.138672 433.240204,676.776306 
	C441.509613,692.191895 440.799377,708.038574 433.661804,723.637939 
	C427.392395,737.339905 417.857849,748.913086 408.134399,760.217590 
	C401.325623,768.133545 394.220856,775.913940 386.444336,782.854004 
	C369.661438,797.831787 353.653931,813.827148 334.082214,825.394043 
	C314.648193,836.879578 294.160645,846.270142 271.823456,849.616882 
	C256.202026,851.957397 240.056381,852.620850 224.279358,851.708252 
	C194.594971,849.991272 166.307861,841.931519 139.932816,827.937866 
	C124.850258,819.935547 110.779808,810.380066 97.739578,799.294495 
	C81.215508,785.247253 66.592056,769.546814 55.045467,751.126343 
	C42.251320,730.715698 33.734669,708.570923 27.924532,685.226196 
	C22.793001,664.608032 21.824097,643.643005 23.249422,622.734802 
	C24.721666,601.138184 30.340342,580.224304 39.311924,560.397888 
	C42.545925,553.250977 46.366035,546.369202 49.999603,539.002197 
z"/>
<path fill="white" opacity="1.000000" stroke="none" 
	d="
M491.782440,849.712769 
	C493.480804,847.673584 494.811493,845.774597 496.405243,844.130737 
	C509.250458,830.882629 522.200134,817.735352 534.981934,804.426758 
	C537.808655,801.483582 540.320007,798.170776 542.579285,794.764648 
	C546.213379,789.285706 544.275879,782.928955 538.086609,775.497375 
	C522.844727,757.196411 507.443665,739.002075 492.915344,720.141846 
	C483.230194,707.568848 475.245941,693.748291 470.702209,678.297974 
	C463.637787,654.276367 475.770386,629.221191 499.513885,622.691528 
	C511.981262,619.262878 523.435242,621.671875 533.970093,627.737610 
	C549.574890,636.722473 562.977661,648.765808 575.772034,661.352661 
	C594.898071,680.168518 613.756531,699.256348 632.728577,718.228760 
	C640.793457,726.293762 649.170593,734.074829 656.835266,742.503845 
	C664.744141,751.201477 672.170410,760.265564 677.203918,771.200378 
	C685.078552,788.307251 680.560364,803.415405 670.077698,817.134094 
	C661.488342,828.374878 652.096924,839.124268 642.131287,849.169128 
	C613.056641,878.474854 583.509827,907.311951 554.160339,936.345154 
	C521.612122,968.542786 489.277557,1000.960571 456.403473,1032.821777 
	C447.618835,1041.335815 437.633301,1048.819214 427.401123,1055.565430 
	C419.133759,1061.015991 409.183777,1060.628784 400.380005,1056.545410 
	C380.862732,1047.492798 366.792389,1032.863037 358.898956,1012.643127 
	C354.354980,1001.003235 356.936432,990.117493 364.096863,980.677002 
	C370.956238,971.633118 378.610992,963.099609 386.609131,955.028381 
	C421.447083,919.872681 456.537811,884.967407 491.782440,849.712769 
z"/>
</svg>