<svg width="25" height="25" viewBox="0 0 25 25" fill="current" xmlns="http://www.w3.org/2000/svg">
<g id="Download">
<path id="Vector 9" d="M12.5 16.4219L11.8067 17.1152L12.5 17.8085L13.1934 17.1152L12.5 16.4219ZM13.4806 4.65567C13.4806 4.11415 13.0416 3.67515 12.5 3.67515C11.9585 3.67515 11.5195 4.11415 11.5195 4.65567L13.4806 4.65567ZM5.92361 11.2321L11.8067 17.1152L13.1934 15.7285L7.31027 9.84544L5.92361 11.2321ZM13.1934 17.1152L19.0765 11.2321L17.6898 9.84544L11.8067 15.7285L13.1934 17.1152ZM13.4806 16.4219L13.4806 4.65567L11.5195 4.65567L11.5195 16.4219L13.4806 16.4219Z" fill="current"/>
<path id="Vector 4" d="M5.63647 21.3262L19.3637 21.3262" stroke="current" stroke-width="1.96103"/>
</g>
</svg>
