<svg width="230" height="230" viewBox="0 0 230 230" fill="none" xmlns="http://www.w3.org/2000/svg">
<g id="clarity:qr-code-line" clip-path="url(#clip0_1500_4892)">
<path id="Vector" d="M35.7779 25.5557C33.0668 25.5557 30.4667 26.6326 28.5497 28.5497C26.6326 30.4667 25.5557 33.0668 25.5557 35.7779V76.6668H76.6668V25.5557H35.7779ZM63.889 63.889H38.3334V38.3334H63.889V63.889Z" fill="black"/>
<path id="Vector_2" d="M25.5557 194.222C25.5557 196.933 26.6326 199.533 28.5497 201.45C30.4667 203.367 33.0668 204.444 35.7779 204.444H76.6668V153.333H25.5557V194.222ZM38.3334 166.111H63.889V191.666H38.3334V166.111Z" fill="black"/>
<path id="Vector_3" d="M153.333 204.444H194.222C196.933 204.444 199.534 203.367 201.451 201.45C203.368 199.533 204.445 196.933 204.445 194.222V153.333H153.333V204.444ZM166.111 166.111H191.667V191.666H166.111V166.111Z" fill="black"/>
<path id="Vector_4" d="M194.222 25.5557H153.333V76.6668H204.445V35.7779C204.445 33.0668 203.368 30.4667 201.451 28.5497C199.534 26.6326 196.933 25.5557 194.222 25.5557ZM191.667 63.889H166.111V38.3334H191.667V63.889Z" fill="black"/>
<path id="Vector_5" d="M127.778 63.8891V51.1113H102.222V76.6669H115V63.8891H127.778Z" fill="black"/>
<path id="Vector_6" d="M76.6665 76.667H89.4443V89.4448H76.6665V76.667Z" fill="black"/>
<path id="Vector_7" d="M89.4443 89.4443H115V102.222H89.4443V89.4443Z" fill="black"/>
<path id="Vector_8" d="M127.778 38.3334V51.1112H140.555V25.5557H89.4443V51.1112H102.222V38.3334H127.778Z" fill="black"/>
<path id="Vector_9" d="M25.5557 89.4443H38.3334V115H25.5557V89.4443Z" fill="black"/>
<path id="Vector_10" d="M76.6668 102.222V115H63.889V89.4443H51.1112V115H38.3334V127.778H25.5557V140.555H51.1112V127.778H63.889V140.555H76.6668V127.778H89.4445V102.222H76.6668Z" fill="black"/>
<path id="Vector_11" d="M127.778 102.222H140.556V115H153.333V102.222H166.111V89.4442H140.556V63.8887H127.778V76.6665H115V89.4442H127.778V102.222Z" fill="black"/>
<path id="Vector_12" d="M115 191.666H89.4443V204.444H140.555V191.666H127.778V178.889H115V191.666Z" fill="black"/>
<path id="Vector_13" d="M140.556 127.778V115H127.778V102.223H115V115H102.222V127.778H115V140.556H127.778V127.778H140.556Z" fill="black"/>
<path id="Vector_14" d="M191.667 127.777H204.444V140.555H191.667V127.777Z" fill="black"/>
<path id="Vector_15" d="M140.556 127.777H178.889V140.555H140.556V127.777Z" fill="black"/>
<path id="Vector_16" d="M191.667 89.4443H178.889V102.222H166.111V115H178.889V127.778H191.667V115H204.445V102.222H191.667V89.4443Z" fill="black"/>
<path id="Vector_17" d="M127.778 140.556H140.556V178.889H127.778V140.556Z" fill="black"/>
<path id="Vector_18" d="M89.4443 178.888H102.222V166.111H115V153.333H102.222V127.777H89.4443V178.888Z" fill="black"/>
</g>
<defs>
<clipPath id="clip0_1500_4892">
<rect width="230" height="230" fill="white"/>
</clipPath>
</defs>
</svg>
